<svg width="4" height="11" viewBox="0 0 4 11" fill="none" xmlns="http://www.w3.org/2000/svg">
<path d="M1.99444 10.112C1.5891 10.112 1.2531 9.98933 0.986438 9.744C0.730438 9.488 0.602438 9.17333 0.602438 8.8C0.602438 8.42667 0.730438 8.11733 0.986438 7.872C1.2531 7.616 1.5891 7.488 1.99444 7.488C2.3891 7.488 2.71444 7.616 2.97044 7.872C3.22644 8.11733 3.35444 8.42667 3.35444 8.8C3.35444 9.17333 3.22644 9.488 2.97044 9.744C2.71444 9.98933 2.3891 10.112 1.99444 10.112ZM1.99444 3.488C1.5891 3.488 1.2531 3.36533 0.986438 3.12C0.730438 2.864 0.602438 2.54933 0.602438 2.176C0.602438 1.80267 0.730438 1.49333 0.986438 1.248C1.2531 0.991999 1.5891 0.863999 1.99444 0.863999C2.3891 0.863999 2.71444 0.991999 2.97044 1.248C3.22644 1.49333 3.35444 1.80267 3.35444 2.176C3.35444 2.54933 3.22644 2.864 2.97044 3.12C2.71444 3.36533 2.3891 3.488 1.99444 3.488Z" fill="black"/>
</svg>
