<svg width="159" height="159" viewBox="0 0 159 159" fill="none" xmlns="http://www.w3.org/2000/svg">
<circle cx="79.3193" cy="79.831" r="79.0761" fill="#53B175"/>
<path d="M114.46 62.5314C114.46 64.6845 113.615 66.7635 112.079 68.2484L76.3621 102.847C74.7491 104.332 72.5984 105.223 70.371 105.223C68.1435 105.223 65.9928 104.332 64.4566 102.847L46.5598 85.5479C45.0236 84.063 44.1787 81.9841 44.1787 79.8309C44.1787 77.6777 45.1004 75.6731 46.6366 74.1139C48.2496 72.629 50.3235 71.8122 52.551 71.738C54.7785 71.738 56.8524 72.5547 58.4654 74.0396L70.371 85.5479L100.173 56.7401C101.786 55.2552 103.86 54.4385 106.088 54.4385C108.315 54.5127 110.389 55.3294 112.002 56.8886C113.538 58.3736 114.46 60.3782 114.46 62.5314Z" fill="white"/>
</svg>
