<svg width="341" height="188" viewBox="0 0 341 188" fill="none" xmlns="http://www.w3.org/2000/svg">
<g clip-path="url(#clip0_609_1343)">
<path d="M175.469 187.037C170.078 187.828 164.622 188.091 159.18 187.822C146.057 187.161 133.151 183.356 122.122 176.204C117.232 173.032 112.567 169.136 110.035 163.901C106.6 156.793 107.801 147.794 112.707 141.603C114.497 139.37 116.698 137.498 119.192 136.088C119.562 135.88 119.94 135.68 120.322 135.488C124.478 133.404 129.147 132.552 133.774 133.033C141.641 133.89 148.902 138.68 153.097 145.371C156.833 151.339 158.135 158.379 158.903 165.435C159.047 166.765 159.172 168.098 159.292 169.424C158.624 173.264 157.573 177.029 156.154 180.661C156.082 180.838 156.023 181.02 155.977 181.206C156.781 182.944 157.546 184.698 158.272 186.468C158.954 186.837 159.718 187.03 160.494 187.029H175.437L175.469 187.037Z" fill="#F2F2F2"/>
<path d="M157.964 187.379C157.865 187.423 157.758 187.447 157.649 187.45C157.541 187.452 157.433 187.433 157.332 187.393C157.231 187.354 157.139 187.295 157.061 187.219C156.983 187.144 156.921 187.054 156.879 186.954C156.815 186.802 156.754 186.65 156.69 186.498C156.112 185.096 155.505 183.708 154.87 182.333C146.742 164.59 134.619 148.953 119.443 136.639C119.356 136.578 119.287 136.495 119.243 136.398C119.199 136.302 119.182 136.195 119.194 136.09C119.216 135.969 119.265 135.855 119.338 135.756C119.41 135.657 119.504 135.576 119.613 135.518C119.721 135.46 119.842 135.427 119.965 135.423C120.088 135.418 120.21 135.441 120.323 135.489C120.384 135.517 120.44 135.552 120.492 135.594C126.985 140.865 132.942 146.76 138.276 153.194C143.611 159.623 148.308 166.551 152.302 173.883C153.391 175.885 154.425 177.916 155.404 179.974C155.597 180.383 155.79 180.795 155.979 181.208C156.783 182.946 157.547 184.7 158.273 186.47C158.285 186.498 158.297 186.53 158.309 186.558C158.346 186.634 158.367 186.716 158.369 186.801C158.371 186.885 158.356 186.969 158.323 187.046C158.29 187.124 158.241 187.194 158.179 187.251C158.117 187.309 158.044 187.352 157.964 187.379Z" fill="white"/>
<path d="M104.671 134.559C113.325 134.559 120.341 127.567 120.341 118.941C120.341 110.315 113.325 103.322 104.671 103.322C96.0163 103.322 89.0005 110.315 89.0005 118.941C89.0005 127.567 96.0163 134.559 104.671 134.559Z" fill="#FFDC18"/>
<path d="M103.118 124.899C102.765 124.9 102.422 124.787 102.14 124.576L102.122 124.563L98.4397 121.752C98.1011 121.487 97.8809 121.1 97.8269 120.674C97.7729 120.248 97.8895 119.819 98.1514 119.478C98.4133 119.137 98.7994 118.913 99.2259 118.854C99.6524 118.796 100.085 118.907 100.43 119.164L102.815 120.987L108.452 113.658C108.716 113.315 109.106 113.09 109.536 113.034C109.967 112.977 110.402 113.093 110.746 113.356L110.711 113.403L110.747 113.357C111.091 113.62 111.316 114.009 111.373 114.437C111.43 114.866 111.313 115.299 111.05 115.643L104.42 124.261C104.267 124.46 104.07 124.62 103.844 124.731C103.618 124.841 103.37 124.898 103.118 124.897L103.118 124.899Z" fill="white"/>
<path d="M340.522 187.999H0.478741C0.414757 188 0.351052 187.99 0.291395 187.966C0.231739 187.943 0.177344 187.908 0.131431 187.864C0.0855175 187.82 0.0490188 187.766 0.0240952 187.708C-0.000828391 187.649 -0.0136719 187.586 -0.0136719 187.522C-0.0136719 187.458 -0.000828391 187.395 0.0240952 187.336C0.0490188 187.277 0.0855175 187.224 0.131431 187.18C0.177344 187.135 0.231739 187.1 0.291395 187.077C0.351052 187.054 0.414757 187.043 0.478741 187.045H340.522C340.586 187.043 340.649 187.054 340.709 187.077C340.769 187.1 340.823 187.135 340.869 187.18C340.915 187.224 340.951 187.277 340.976 187.336C341.001 187.395 341.014 187.458 341.014 187.522C341.014 187.586 341.001 187.649 340.976 187.708C340.951 187.766 340.915 187.82 340.869 187.864C340.823 187.908 340.769 187.943 340.709 187.966C340.649 187.99 340.586 188 340.522 187.999Z" fill="#3F3D56"/>
<path d="M66.5168 54.4431C72.9389 54.4431 78.145 49.2542 78.145 42.8534C78.145 36.4526 72.9389 31.2637 66.5168 31.2637C60.0948 31.2637 54.8887 36.4526 54.8887 42.8534C54.8887 49.2542 60.0948 54.4431 66.5168 54.4431Z" fill="#2F2E41"/>
<path d="M57.4407 36.6036C59.3197 34.7308 59.7006 32.0739 58.2913 30.6693C56.8821 29.2647 54.2164 29.6443 52.3374 31.5171C50.4583 33.39 50.0775 36.0468 51.4867 37.4514C52.896 38.856 55.5616 38.4764 57.4407 36.6036Z" fill="#2F2E41"/>
<path d="M78.6368 32.9251C79.4197 31.0984 78.0733 28.7742 75.6296 27.7337C73.1858 26.6933 70.5701 27.3306 69.7872 29.1573C69.0043 30.984 70.3507 33.3083 72.7944 34.3488C75.2381 35.3892 77.8539 34.7518 78.6368 32.9251Z" fill="#2F2E41"/>
<path d="M98.8962 109.765C99.19 109.209 99.3578 108.594 99.3877 107.966C99.4176 107.338 99.309 106.711 99.0695 106.129C98.83 105.547 98.4653 105.025 98.0013 104.598C97.5372 104.172 96.9851 103.852 96.3837 103.662L79.5819 68.2363L71.8975 73.6079L90.83 106.741C90.5751 107.77 90.7077 108.855 91.2027 109.793C91.6976 110.73 92.5205 111.454 93.5153 111.827C94.51 112.2 95.6075 112.196 96.5995 111.816C97.5915 111.436 98.4092 110.706 98.8974 109.765H98.8962Z" fill="#FFB8B8"/>
<path d="M83.4349 74.1465L74.5113 78.1236C74.2573 78.2365 73.982 78.2935 73.704 78.2907C73.426 78.288 73.1519 78.2256 72.9002 78.1078C72.6486 77.99 72.4254 77.8196 72.2458 77.6081C72.0661 77.3966 71.9344 77.149 71.8594 76.8822L69.2279 67.5299C68.9417 66.8868 68.7853 66.1938 68.7678 65.4905C68.7502 64.7872 68.8718 64.0873 69.1257 63.4308C69.3795 62.7744 69.7606 62.1742 70.2471 61.6645C70.7337 61.1548 71.3162 60.7456 71.9614 60.4603C72.6066 60.175 73.3019 60.0191 74.0076 60.0017C74.7132 59.9842 75.4154 60.1054 76.074 60.3584C76.7327 60.6114 77.3349 60.9912 77.8463 61.4761C78.3576 61.9611 78.7682 62.5417 79.0544 63.1847L84.2779 71.3472C84.4273 71.5811 84.5243 71.8443 84.5625 72.1189C84.6006 72.3936 84.5789 72.6732 84.4988 72.9387C84.4187 73.2042 84.2822 73.4494 84.0984 73.6575C83.9147 73.8657 83.6881 74.0319 83.4341 74.1449L83.4349 74.1465Z" fill="#CCCCCC"/>
<path d="M42.2232 113.276C42.8378 113.134 43.4137 112.859 43.9103 112.471C44.4068 112.083 44.8119 111.591 45.0971 111.03C45.3823 110.469 45.5407 109.853 45.561 109.224C45.5812 108.595 45.463 107.97 45.2146 107.392L61.1259 71.5605L52.0231 69.2754L39.2458 105.215C38.2983 105.695 37.5605 106.505 37.1723 107.491C36.7842 108.477 36.7726 109.571 37.1398 110.565C37.5071 111.559 38.2276 112.384 39.1647 112.884C40.1018 113.384 41.1904 113.523 42.224 113.276H42.2232Z" fill="#FFB8B8"/>
<path d="M37.8857 178.224L42.5145 179.904L51.2179 162.909L44.3873 160.43L37.8857 178.224Z" fill="#FFB8B8"/>
<path d="M49.8057 187.35L35.2539 182.073L37.2996 176.469L46.2286 179.706C46.967 179.974 47.6453 180.384 48.2246 180.913C48.804 181.442 49.2732 182.08 49.6053 182.79C49.9375 183.499 50.1262 184.267 50.1605 185.05C50.1949 185.832 50.0743 186.614 49.8057 187.35Z" fill="#2F2E41"/>
<path d="M48.8341 168.444C48.5501 168.444 48.2695 168.381 48.0128 168.26L42.6933 165.748C42.2573 165.544 41.9136 165.185 41.73 164.741C41.5464 164.297 41.5362 163.801 41.7013 163.35L56.7142 121.912C56.8386 121.569 57.058 121.268 57.3471 121.044C57.6362 120.821 57.983 120.683 58.3473 120.648C58.7117 120.612 59.0786 120.681 59.4055 120.845C59.7324 121.009 60.0059 121.262 60.1942 121.575L68.1347 134.768C68.3113 135.062 68.4064 135.397 68.4101 135.74C68.4137 136.082 68.3259 136.42 68.1556 136.717L50.5217 167.474C50.3508 167.769 50.1048 168.014 49.8085 168.184C49.5122 168.355 49.1761 168.444 48.8341 168.444Z" fill="#2F2E41"/>
<path d="M66.8858 55.4553C72.3361 55.4553 76.7544 51.0516 76.7544 45.6193C76.7544 40.187 72.3361 35.7832 66.8858 35.7832C61.4354 35.7832 57.0171 40.187 57.0171 45.6193C57.0171 51.0516 61.4354 55.4553 66.8858 55.4553Z" fill="#FFB8B8"/>
<path d="M80.8471 90.3402L63.3735 85.5497L54.0798 67.0242C53.6333 66.1342 53.4225 65.1452 53.4673 64.1512C53.5122 63.1571 53.8113 62.191 54.3362 61.3445C54.8611 60.4981 55.5943 59.7994 56.4663 59.3149C57.3384 58.8304 58.3202 58.5761 59.3185 58.5762H73.2209C74.6639 58.5752 76.0563 59.106 77.1304 60.0663C80.8595 63.3963 88.6947 72.9957 80.923 90.1712L80.8471 90.3402Z" fill="#CCCCCC"/>
<path d="M58.9731 77.9692L50.1202 73.8387C49.8683 73.7212 49.6448 73.5509 49.4649 73.3395C49.285 73.1281 49.1529 72.8805 49.0776 72.6136C49.0023 72.3468 48.9856 72.0669 49.0287 71.793C49.0717 71.5191 49.1735 71.2577 49.3271 71.0266L54.7076 62.9278C55.3157 61.6426 56.4111 60.6508 57.7529 60.1707C59.0947 59.6905 60.5729 59.7612 61.8623 60.3673C63.1517 60.9734 64.1468 62.0652 64.6285 63.4026C65.1103 64.7399 65.0393 66.2132 64.4312 67.4984L61.6491 76.7746C61.5694 77.0402 61.4332 77.2855 61.2498 77.4939C61.0663 77.7023 60.84 77.8688 60.5861 77.9822C60.3323 78.0955 60.0569 78.153 59.7788 78.1507C59.5006 78.1483 59.2263 78.0863 58.9743 77.9688L58.9731 77.9692Z" fill="#CCCCCC"/>
<path d="M69.6839 182.869H74.6096L76.9533 163.932H69.6807L69.6839 182.869Z" fill="#FFB8B8"/>
<path d="M84.1079 187.43L68.6261 187.43L68.6258 181.469L78.126 181.468C79.7124 181.468 81.2339 182.096 82.3557 183.214C83.4775 184.332 84.1078 185.849 84.1079 187.43Z" fill="#2F2E41"/>
<path d="M71.5437 175.652C71.1006 175.653 70.6708 175.501 70.3268 175.223C69.9827 174.945 69.7456 174.557 69.6552 174.125C68.2413 167.475 60.8883 133.416 55.1465 115.872C49.3067 98.0228 59.2521 89.8924 61.3053 88.4439C61.524 88.2899 61.6978 88.0808 61.8088 87.838L63.3003 84.5677C63.455 84.2298 63.7039 83.9435 64.0174 83.7427C64.3308 83.542 64.6956 83.4354 65.0682 83.4355H65.0803C76.262 83.502 80.0209 87.0154 81.1178 88.5216C81.2796 88.7461 81.3906 89.003 81.4429 89.2745C81.4952 89.546 81.4876 89.8255 81.4208 90.0938L74.3458 119.186C74.3019 119.367 74.292 119.554 74.3165 119.738L81.3553 172.56C81.3891 172.814 81.3718 173.072 81.3045 173.32C81.2372 173.567 81.1212 173.798 80.9633 174C80.8054 174.202 80.6086 174.371 80.3846 174.496C80.1606 174.622 79.9137 174.702 79.6585 174.731L71.7715 175.638C71.6961 175.646 71.6203 175.65 71.5445 175.65L71.5437 175.652Z" fill="#2F2E41"/>
<path d="M56.5161 39.433C58.7712 40.9824 61.448 41.8069 64.1869 41.7958C63.2099 42.471 62.0976 42.9271 60.9267 43.1326C64.5682 43.9112 68.3318 43.9324 71.9819 43.1947C72.7933 43.0651 73.5762 42.7971 74.2963 42.4025C74.6551 42.2028 74.9677 41.93 75.2138 41.6019C75.4599 41.2739 75.634 40.8978 75.7247 40.4983C75.9658 39.1171 74.8877 37.8624 73.7655 37.017C72.0476 35.742 70.0669 34.8636 67.9666 34.4453C65.8663 34.027 63.699 34.0792 61.6214 34.5981C60.2649 34.9477 58.9056 35.538 58.0245 36.6241C57.1433 37.7102 56.8822 39.3842 57.7219 40.5023L56.5161 39.433Z" fill="#2F2E41"/>
<path d="M237.667 82.0979C240.552 82.0979 242.891 79.767 242.891 76.8917C242.891 74.0164 240.552 71.6855 237.667 71.6855C234.782 71.6855 232.444 74.0164 232.444 76.8917C232.444 79.767 234.782 82.0979 237.667 82.0979Z" fill="#FEDC17"/>
<path d="M237.15 78.8778C237.032 78.8781 236.918 78.8403 236.824 78.7701L236.818 78.7657L235.592 77.8286C235.477 77.7409 235.402 77.6114 235.383 77.4684C235.364 77.3255 235.403 77.1809 235.491 77.0665C235.579 76.952 235.709 76.8771 235.852 76.8582C235.996 76.8393 236.141 76.8779 236.256 76.9656L237.051 77.5731L238.93 75.1302C239.017 75.0161 239.147 74.9415 239.29 74.9227C239.433 74.9038 239.578 74.9423 239.693 75.0297L239.681 75.0453L239.693 75.0297C239.808 75.1175 239.882 75.2468 239.901 75.3894C239.92 75.532 239.882 75.6762 239.794 75.7906L237.584 78.6632C237.533 78.7294 237.467 78.783 237.392 78.8198C237.317 78.8566 237.234 78.8757 237.15 78.8754L237.15 78.8778Z" fill="white"/>
<path d="M237.667 97.3147C240.552 97.3147 242.891 94.9838 242.891 92.1085C242.891 89.2332 240.552 86.9023 237.667 86.9023C234.782 86.9023 232.444 89.2332 232.444 92.1085C232.444 94.9838 234.782 97.3147 237.667 97.3147Z" fill="#FEDC17"/>
<path d="M237.15 94.0946C237.032 94.0948 236.918 94.0568 236.824 93.9865L236.818 93.9821L235.592 93.0454C235.477 92.9577 235.402 92.8282 235.383 92.6852C235.364 92.5423 235.403 92.3977 235.491 92.2833C235.579 92.1688 235.709 92.0939 235.852 92.075C235.996 92.0561 236.141 92.0947 236.256 92.1824L237.051 92.7899L238.93 90.347C239.017 90.2329 239.147 90.1583 239.29 90.1394C239.433 90.1206 239.578 90.1591 239.693 90.2465L239.681 90.2621L239.693 90.2465C239.808 90.3343 239.882 90.4636 239.901 90.6062C239.92 90.7488 239.882 90.893 239.794 91.0074L237.584 93.8804C237.533 93.9466 237.467 94.0002 237.392 94.037C237.317 94.0738 237.234 94.0929 237.15 94.0926L237.15 94.0946Z" fill="white"/>
<path d="M240.48 114.936C243.365 114.936 245.703 112.605 245.703 109.73C245.703 106.854 243.365 104.523 240.48 104.523C237.595 104.523 235.256 106.854 235.256 109.73C235.256 112.605 237.595 114.936 240.48 114.936Z" fill="#FEDC17"/>
<path d="M239.962 111.716C239.845 111.716 239.731 111.678 239.637 111.608L239.631 111.604L238.405 110.666C238.348 110.623 238.3 110.569 238.264 110.507C238.228 110.445 238.205 110.377 238.196 110.306C238.186 110.236 238.191 110.164 238.209 110.095C238.228 110.026 238.26 109.961 238.303 109.904C238.347 109.848 238.401 109.8 238.463 109.764C238.525 109.729 238.594 109.705 238.665 109.696C238.736 109.687 238.808 109.691 238.877 109.71C238.946 109.728 239.011 109.76 239.068 109.803L239.863 110.411L241.742 107.968C241.83 107.854 241.96 107.779 242.103 107.761C242.246 107.742 242.391 107.78 242.505 107.868L242.494 107.883L242.506 107.868C242.62 107.955 242.695 108.085 242.714 108.227C242.733 108.37 242.694 108.514 242.607 108.628L240.397 111.501C240.346 111.568 240.28 111.621 240.205 111.658C240.129 111.695 240.047 111.714 239.963 111.714L239.962 111.716Z" fill="white"/>
<path d="M290.848 153.196C290.794 153.196 290.76 153.196 290.748 153.194H284.263V152.241H290.772C290.923 152.246 293.997 152.333 296.83 148.907C301.051 143.802 304.517 131.162 297.06 99.9437C287.032 57.9655 295.396 20.8804 299.457 6.88461C299.658 6.19216 299.694 5.46272 299.563 4.75398C299.431 4.04524 299.137 3.37664 298.701 2.80105C298.266 2.22546 297.703 1.75868 297.055 1.43762C296.408 1.11655 295.695 0.950018 294.971 0.951181H198.123C197.386 0.952112 196.661 1.12608 196.004 1.45896C195.348 1.79184 194.78 2.27426 194.346 2.86705C192.625 5.22585 190.264 9.75722 188.787 17.9509L187.846 17.7823C189.355 9.4124 191.793 4.74608 193.572 2.30679C194.095 1.59251 194.78 1.01119 195.57 0.610048C196.361 0.208902 197.235 -0.000770427 198.122 -0.00195042H294.971C295.842 -0.00280393 296.701 0.198277 297.481 0.58541C298.261 0.972542 298.94 1.53512 299.464 2.22869C299.988 2.92226 300.343 3.72782 300.502 4.58174C300.66 5.43566 300.617 6.31453 300.375 7.14893C296.335 21.0726 288.015 57.9663 297.992 99.7258C305.554 131.384 301.919 144.299 297.537 149.555C294.645 153.021 291.461 153.196 290.848 153.196Z" fill="#E6E6E6"/>
<path d="M273.398 170.589C273.344 170.589 273.31 170.589 273.298 170.587H266.813V169.634H273.322C273.474 169.639 276.548 169.726 279.38 166.3C283.601 161.194 287.068 148.555 279.61 117.336C269.582 75.3581 277.946 38.273 282.007 24.2772C282.208 23.5847 282.244 22.8553 282.113 22.1466C281.982 21.4378 281.687 20.7692 281.252 20.1936C280.817 19.618 280.253 19.1513 279.606 18.8302C278.958 18.5091 278.245 18.3426 277.522 18.3438H180.673C179.937 18.3447 179.211 18.5187 178.555 18.8515C177.898 19.1844 177.33 19.6668 176.896 20.2596C175.175 22.6184 172.814 27.1498 171.337 35.3435L170.396 35.1749C171.906 26.805 174.343 22.1387 176.122 19.6994C176.645 18.9851 177.33 18.4038 178.12 18.0026C178.911 17.6015 179.785 17.3918 180.672 17.3906H277.521C278.392 17.3899 279.252 17.5911 280.031 17.9784C280.811 18.3657 281.49 18.9284 282.014 19.6221C282.538 20.3158 282.893 21.1215 283.051 21.9755C283.209 22.8294 283.166 23.7083 282.924 24.5427C278.884 38.466 270.564 75.3589 280.539 117.116C288.101 148.774 284.466 161.689 280.084 166.945C277.195 170.413 274.011 170.589 273.398 170.589Z" fill="#CCCCCC"/>
<path d="M263.089 134.511C253.113 92.7539 261.434 55.8581 265.476 41.9376C265.717 41.1032 265.759 40.2245 265.601 39.3707C265.443 38.517 265.088 37.7116 264.564 37.018C264.04 36.3245 263.361 35.7618 262.582 35.3743C261.802 34.9868 260.943 34.7851 260.072 34.7852H163.222C162.335 34.786 161.461 34.9954 160.671 35.3962C159.88 35.797 159.196 36.378 158.673 37.0919C154.764 42.4502 146.651 60.2193 155.712 109.386C160.558 135.689 160.485 153.622 158.902 165.436C158.014 172.088 156.644 176.797 155.403 179.973L155.27 180.31C155.008 180.952 154.872 181.639 154.868 182.332C154.859 183.115 155.017 183.891 155.33 184.609C155.644 185.327 156.107 185.97 156.688 186.497C157.068 186.851 157.497 187.148 157.962 187.378C158.348 187.574 158.757 187.724 159.18 187.823C159.61 187.927 160.051 187.98 160.493 187.979H255.849C255.861 187.979 255.893 187.983 255.95 187.983C256.56 187.983 259.747 187.807 262.636 184.338C267.015 179.08 270.651 166.169 263.089 134.511ZM261.928 183.694C259.095 187.122 256.022 187.034 255.873 187.03H160.495C159.731 187.029 158.98 186.843 158.305 186.486C157.631 186.129 157.054 185.613 156.626 184.983C156.249 184.438 155.996 183.818 155.884 183.166C155.773 182.514 155.805 181.845 155.979 181.207C156.024 181.021 156.083 180.839 156.156 180.662C157.574 177.03 158.625 173.265 159.294 169.425C161.56 157.11 161.982 138.108 156.654 109.213C147.661 60.4115 155.613 42.9108 159.446 37.6526C159.881 37.0606 160.45 36.579 161.106 36.2464C161.762 35.9139 162.487 35.7398 163.223 35.7383H260.074C260.796 35.7375 261.509 35.9042 262.156 36.2252C262.803 36.5462 263.366 37.0128 263.801 37.5881C264.236 38.1633 264.531 38.8315 264.662 39.5398C264.794 40.2481 264.758 40.9772 264.558 41.6693C260.496 55.6659 252.134 92.7538 262.163 134.732C269.619 165.949 266.151 178.588 261.928 183.694Z" fill="#3F3D56"/>
<path d="M217.079 80.2551H167.181C166.166 80.2551 165.193 79.8535 164.476 79.1386C163.759 78.4236 163.356 77.454 163.356 76.443C163.356 75.4319 163.759 74.4623 164.476 73.7474C165.193 73.0325 166.166 72.6309 167.181 72.6309H217.079C218.093 72.6309 219.066 73.0325 219.783 73.7474C220.501 74.4623 220.904 75.4319 220.904 76.443C220.904 77.454 220.501 78.4236 219.783 79.1386C219.066 79.8535 218.093 80.2551 217.079 80.2551Z" fill="#CCCCCC"/>
<path d="M217.079 96.675H167.181C166.166 96.675 165.193 96.2734 164.476 95.5585C163.759 94.8436 163.356 93.8739 163.356 92.8629C163.356 91.8519 163.759 90.8822 164.476 90.1673C165.193 89.4524 166.166 89.0508 167.181 89.0508H217.079C218.093 89.0508 219.066 89.4524 219.783 90.1673C220.501 90.8822 220.904 91.8519 220.904 92.8629C220.904 93.8739 220.501 94.8436 219.783 95.5585C219.066 96.2734 218.093 96.675 217.079 96.675Z" fill="#CCCCCC"/>
<path d="M221.097 113.495H171.199C170.184 113.495 169.212 113.094 168.494 112.379C167.777 111.664 167.374 110.694 167.374 109.683C167.374 108.672 167.777 107.703 168.494 106.988C169.212 106.273 170.184 105.871 171.199 105.871H221.097C222.111 105.871 223.084 106.273 223.802 106.988C224.519 107.703 224.922 108.672 224.922 109.683C224.922 110.694 224.519 111.664 223.802 112.379C223.084 113.094 222.111 113.495 221.097 113.495Z" fill="#CCCCCC"/>
<path d="M223.91 131.114H174.011C172.997 131.114 172.024 130.713 171.307 129.998C170.59 129.283 170.187 128.313 170.187 127.302C170.187 126.291 170.59 125.322 171.307 124.607C172.024 123.892 172.997 123.49 174.011 123.49H223.91C224.924 123.49 225.897 123.892 226.614 124.607C227.331 125.322 227.734 126.291 227.734 127.302C227.734 128.313 227.331 129.283 226.614 129.998C225.897 130.713 224.924 131.114 223.91 131.114Z" fill="#CCCCCC"/>
<path d="M223.93 50.6555H188.074C187.06 50.6555 186.087 50.2539 185.37 49.5389C184.652 48.824 184.25 47.8544 184.25 46.8434C184.25 45.8323 184.652 44.8627 185.37 44.1478C186.087 43.4329 187.06 43.0312 188.074 43.0312H223.931C224.945 43.0312 225.918 43.4329 226.635 44.1478C227.353 44.8627 227.755 45.8323 227.755 46.8434C227.755 47.8544 227.353 48.824 226.635 49.5389C225.918 50.2539 224.945 50.6555 223.931 50.6555H223.93Z" fill="#FFDC18"/>
<path d="M243.694 132.51C246.579 132.51 248.918 130.179 248.918 127.304C248.918 124.429 246.579 122.098 243.694 122.098C240.809 122.098 238.471 124.429 238.471 127.304C238.471 130.179 240.809 132.51 243.694 132.51Z" fill="#CCCCCC"/>
<path d="M226.32 148.335H176.422C175.408 148.335 174.435 147.934 173.717 147.219C173 146.504 172.597 145.534 172.597 144.523C172.597 143.512 173 142.542 173.717 141.827C174.435 141.113 175.408 140.711 176.422 140.711H226.32C227.335 140.711 228.307 141.113 229.025 141.827C229.742 142.542 230.145 143.512 230.145 144.523C230.145 145.534 229.742 146.504 229.025 147.219C228.307 147.934 227.335 148.335 226.32 148.335Z" fill="#CCCCCC"/>
<path d="M246.105 149.731C248.99 149.731 251.329 147.4 251.329 144.525C251.329 141.649 248.99 139.318 246.105 139.318C243.22 139.318 240.882 141.649 240.882 144.525C240.882 147.4 243.22 149.731 246.105 149.731Z" fill="#CCCCCC"/>
</g>
<defs>
<clipPath id="clip0_609_1343">
<rect width="341" height="188" fill="white"/>
</clipPath>
</defs>
</svg>
