<svg width="127" height="127" viewBox="0 0 127 127" fill="none" xmlns="http://www.w3.org/2000/svg">
<g clip-path="url(#clip0_107_6241)">
<path d="M112.448 111.125H14.5524C6.5248 111.125 0 104.6 0 96.5726V30.4274C0 22.3998 6.5248 15.875 14.5524 15.875H112.448C120.475 15.875 127 22.3998 127 30.4274V96.5726C127 104.6 120.475 111.125 112.448 111.125ZM14.5524 23.8125C10.9063 23.8125 7.9375 26.7813 7.9375 30.4274V96.5726C7.9375 100.219 10.9063 103.188 14.5524 103.188H112.448C116.094 103.188 119.062 100.219 119.062 96.5726V30.4274C119.062 26.7813 116.094 23.8125 112.448 23.8125H14.5524Z" fill="#FFDC18"/>
<path d="M39.6876 63.4997C32.3954 63.4997 26.4587 57.562 26.4587 50.2708C26.4587 42.9786 32.3954 37.041 39.6876 37.041C46.9798 37.041 52.9164 42.9786 52.9164 50.2708C52.9164 57.562 46.9798 63.4997 39.6876 63.4997ZM39.6876 44.9785C36.7721 44.9785 34.3962 47.3543 34.3962 50.2708C34.3962 53.1863 36.7721 55.5622 39.6876 55.5622C42.6031 55.5622 44.9789 53.1863 44.9789 50.2708C44.9789 47.3543 42.6031 44.9785 39.6876 44.9785Z" fill="#FFDC18"/>
<path d="M59.5312 89.9583C57.3405 89.9583 55.5625 88.1803 55.5625 85.9896V83.3434C55.5625 79.6973 52.5937 76.7285 48.9476 76.7285H30.4274C26.7813 76.7285 23.8125 79.6973 23.8125 83.3434V85.9896C23.8125 88.1803 22.0345 89.9583 19.8438 89.9583C17.653 89.9583 15.875 88.1803 15.875 85.9896V83.3434C15.875 75.3158 22.3998 68.791 30.4274 68.791H48.9476C56.9752 68.791 63.5 75.3158 63.5 83.3434V85.9896C63.5 88.1803 61.722 89.9583 59.5312 89.9583Z" fill="#FFDC18"/>
<path d="M107.156 47.625H78.0525C75.8617 47.625 74.0837 45.847 74.0837 43.6562C74.0837 41.4655 75.8617 39.6875 78.0525 39.6875H107.156C109.347 39.6875 111.125 41.4655 111.125 43.6562C111.125 45.847 109.347 47.625 107.156 47.625Z" fill="#FFDC18"/>
<path d="M107.156 68.791H78.0525C75.8617 68.791 74.0837 67.013 74.0837 64.8223C74.0837 62.6315 75.8617 60.8535 78.0525 60.8535H107.156C109.347 60.8535 111.125 62.6315 111.125 64.8223C111.125 67.013 109.347 68.791 107.156 68.791Z" fill="#FFDC18"/>
<path d="M107.156 89.959H78.0525C75.8617 89.959 74.0837 88.181 74.0837 85.9902C74.0837 83.7995 75.8617 82.0215 78.0525 82.0215H107.156C109.347 82.0215 111.125 83.7995 111.125 85.9902C111.125 88.181 109.347 89.959 107.156 89.959Z" fill="#FFDC18"/>
</g>
<defs>
<clipPath id="clip0_107_6241">
<rect width="127" height="127" fill="white"/>
</clipPath>
</defs>
</svg>
