<svg width="134" height="178" viewBox="0 0 134 178" fill="none" xmlns="http://www.w3.org/2000/svg">
<path d="M103.241 133.706L29.0634 133.695C27.0175 133.695 25.355 135.354 25.355 137.404C25.355 139.45 27.0136 141.112 29.0634 141.112L103.241 141.123C105.286 141.123 106.949 139.464 106.949 137.415C106.949 135.368 105.29 133.706 103.241 133.706Z" fill="#FFDC18"/>
<path d="M88.3958 148.54H43.8959C41.8462 148.54 40.1875 150.199 40.1875 152.248C40.1875 154.298 41.8462 155.957 43.8959 155.957H88.3958C90.4455 155.957 92.1042 154.298 92.1042 152.248C92.1038 150.198 90.4455 148.54 88.3958 148.54Z" fill="#FFDC18"/>
<path d="M66.9994 44.5C44.5068 44.5 26.208 62.7988 26.208 85.2913C26.208 107.784 44.5068 126.083 66.9994 126.083C89.492 126.083 107.791 107.784 107.791 85.2913C107.791 62.7988 89.492 44.5 66.9994 44.5ZM33.9993 88.9997H48.5337C48.9443 99.1011 51.0306 109.147 54.6521 116.236C43.4684 111.757 35.3941 101.398 33.9993 88.9997ZM48.5341 81.5832H33.9996C35.3944 69.1848 43.4687 58.8265 54.6524 54.3473C51.0309 61.4359 48.9446 71.4818 48.5341 81.5832ZM66.9994 118.666C62.7507 118.666 56.7752 107.177 56.0229 89H77.9759C77.2236 107.177 71.2481 118.666 66.9994 118.666ZM56.0229 81.5832C56.7752 63.4058 62.7507 51.9168 66.9994 51.9168C71.2481 51.9168 77.2236 63.4058 77.9759 81.5832H56.0229ZM79.3467 116.236C82.9682 109.147 85.0545 99.1014 85.4651 89H99.9995C98.6047 101.398 90.5304 111.757 79.3467 116.236ZM85.4651 81.5832C85.0545 71.4818 82.9682 61.4359 79.3467 54.3473C90.5304 58.8265 98.605 69.1852 99.9995 81.5832H85.4651Z" fill="#FFDC18"/>
<path d="M118.917 22.2507H111.5V14.5877C111.5 6.48521 104.644 -0.0809447 96.6666 0.00075422C95.527 0.0125745 94.5296 0.17041 93.3531 0.468002L14.2895 22.331C6.48394 22.7537 0.250488 29.1756 0.250488 37.0841V163.167C0.250488 171.348 6.90286 178 15.0839 178H118.917C127.098 178 133.75 171.348 133.75 163.167V37.0841C133.75 28.9034 127.098 22.2507 118.917 22.2507ZM95.2579 7.63456C99.5856 6.53006 104.083 10.0355 104.083 14.5877V22.2507H42.4064L95.2579 7.63456ZM126.333 163.167C126.333 167.255 123.005 170.584 118.917 170.584H15.0839C10.9955 170.584 7.66736 167.255 7.66736 163.167V37.0841C7.66736 32.9956 10.9955 29.6675 15.0839 29.6675H118.917C123.005 29.6675 126.333 32.9956 126.333 37.0841V163.167Z" fill="#FFDC18"/>
</svg>
