<svg width="127" height="127" viewBox="0 0 127 127" fill="none" xmlns="http://www.w3.org/2000/svg">
<path d="M63.5 60C48.8923 60 37 48.1062 37 33.501C37 18.8938 48.8923 7 63.5 7C78.1077 7 90 18.8938 90 33.501C90 48.1062 78.1077 60 63.5 60ZM63.5 22.8998C57.6596 22.8998 52.9004 27.6589 52.9004 33.501C52.9004 39.3411 57.6596 44.1002 63.5 44.1002C69.3404 44.1002 74.0996 39.3411 74.0996 33.501C74.0996 27.6589 69.3404 22.8998 63.5 22.8998Z" fill="#FFDC18"/>
<path d="M103.083 113C98.7133 113 95.1667 109.388 95.1667 104.938V99.5623C95.1667 92.1555 89.2446 86.1245 81.9716 86.1245H45.0284C37.7554 86.1245 31.8333 92.1555 31.8333 99.5623V104.938C31.8333 109.388 28.2867 113 23.9167 113C19.5467 113 16 109.388 16 104.938V99.5623C16 83.2547 29.0153 70 45.0284 70H81.9716C97.9847 70 111 83.2547 111 99.5623V104.938C111 109.388 107.453 113 103.083 113Z" fill="#FFDC18"/>
</svg>
