<svg width="208" height="171" viewBox="0 0 208 171" fill="none" xmlns="http://www.w3.org/2000/svg">
<g clip-path="url(#clip0_153_356)">
<path d="M152.448 137.125H54.5524C46.5248 137.125 40 130.6 40 122.573V56.4274C40 48.3998 46.5248 41.875 54.5524 41.875H152.448C160.475 41.875 167 48.3998 167 56.4274V122.573C167 130.6 160.475 137.125 152.448 137.125V137.125ZM54.5524 49.8125C50.9063 49.8125 47.9375 52.7813 47.9375 56.4274V122.573C47.9375 126.219 50.9063 129.188 54.5524 129.188H152.448C156.094 129.188 159.062 126.219 159.062 122.573V56.4274C159.062 52.7813 156.094 49.8125 152.448 49.8125H54.5524Z" fill="#FFDC18"/>
<path d="M79.6876 89.4997C72.3954 89.4997 66.4587 83.562 66.4587 76.2708C66.4587 68.9786 72.3954 63.041 79.6876 63.041C86.9798 63.041 92.9164 68.9786 92.9164 76.2708C92.9164 83.562 86.9798 89.4997 79.6876 89.4997ZM79.6876 70.9785C76.7721 70.9785 74.3962 73.3543 74.3962 76.2708C74.3962 79.1863 76.7721 81.5622 79.6876 81.5622C82.6031 81.5622 84.9789 79.1863 84.9789 76.2708C84.9789 73.3543 82.6031 70.9785 79.6876 70.9785Z" fill="#FFDC18"/>
<path d="M99.5312 115.958C97.3405 115.958 95.5625 114.18 95.5625 111.99V109.343C95.5625 105.697 92.5937 102.729 88.9476 102.729H70.4274C66.7813 102.729 63.8125 105.697 63.8125 109.343V111.99C63.8125 114.18 62.0345 115.958 59.8438 115.958C57.653 115.958 55.875 114.18 55.875 111.99V109.343C55.875 101.316 62.3998 94.791 70.4274 94.791H88.9476C96.9752 94.791 103.5 101.316 103.5 109.343V111.99C103.5 114.18 101.722 115.958 99.5312 115.958V115.958Z" fill="#FFDC18"/>
<path d="M147.156 73.625H118.052C115.862 73.625 114.084 71.847 114.084 69.6562C114.084 67.4655 115.862 65.6875 118.052 65.6875H147.156C149.347 65.6875 151.125 67.4655 151.125 69.6562C151.125 71.847 149.347 73.625 147.156 73.625Z" fill="#FFDC18"/>
<path d="M147.156 94.791H118.052C115.862 94.791 114.084 93.013 114.084 90.8223C114.084 88.6315 115.862 86.8535 118.052 86.8535H147.156C149.347 86.8535 151.125 88.6315 151.125 90.8223C151.125 93.013 149.347 94.791 147.156 94.791Z" fill="#FFDC18"/>
<path d="M147.156 115.959H118.052C115.862 115.959 114.084 114.181 114.084 111.99C114.084 109.799 115.862 108.021 118.052 108.021H147.156C149.347 108.021 151.125 109.799 151.125 111.99C151.125 114.181 149.347 115.959 147.156 115.959Z" fill="#FFDC18"/>
</g>
<path d="M41 10C43.7614 10 46 7.76142 46 5C46 2.23858 43.7614 0 41 0V10ZM5.5 5V0C2.73858 0 0.5 2.23858 0.5 5L5.5 5ZM0.5 32C0.5 34.7614 2.73858 37 5.5 37C8.26142 37 10.5 34.7614 10.5 32H0.5ZM41 0H5.5V10H41V0ZM0.5 5V32H10.5V5H0.5Z" fill="#515151"/>
<path d="M41 161C43.7614 161 46 163.239 46 166C46 168.761 43.7614 171 41 171V161ZM5.5 166V171C2.73858 171 0.5 168.761 0.5 166H5.5ZM0.5 139C0.5 136.239 2.73858 134 5.5 134C8.26142 134 10.5 136.239 10.5 139H0.5ZM41 171H5.5V161H41V171ZM0.5 166V139H10.5V166H0.5Z" fill="#515151"/>
<path d="M167 10C164.239 10 162 7.76142 162 5C162 2.23858 164.239 0 167 0V10ZM202.5 5V0C205.261 0 207.5 2.23858 207.5 5L202.5 5ZM207.5 32C207.5 34.7614 205.261 37 202.5 37C199.739 37 197.5 34.7614 197.5 32H207.5ZM167 0H202.5V10H167V0ZM207.5 5V32H197.5V5H207.5Z" fill="#515151"/>
<path d="M167 161C164.239 161 162 163.239 162 166C162 168.761 164.239 171 167 171V161ZM202.5 166V171C205.261 171 207.5 168.761 207.5 166H202.5ZM207.5 139C207.5 136.239 205.261 134 202.5 134C199.739 134 197.5 136.239 197.5 139H207.5ZM167 171H202.5V161H167V171ZM207.5 166V139H197.5V166H207.5Z" fill="#515151"/>
<defs>
<clipPath id="clip0_153_356">
<rect width="127" height="127" fill="white" transform="translate(40 26)"/>
</clipPath>
</defs>
</svg>
