<svg width="22" height="26" viewBox="0 0 22 26" fill="none" xmlns="http://www.w3.org/2000/svg">
<path d="M17.5789 8.84252C17.5789 7.08371 16.8803 5.39694 15.6366 4.15328C14.3929 2.90962 12.7062 2.21094 10.9474 2.21094C9.18856 2.21094 7.5018 2.90962 6.25813 4.15328C5.01447 5.39694 4.31579 7.08371 4.31579 8.84252C4.31579 16.5794 1 18.7899 1 18.7899H20.8947C20.8947 18.7899 17.5789 16.5794 17.5789 8.84252Z" stroke="#858585" stroke-width="2" stroke-linecap="round" stroke-linejoin="round"/>
<path d="M12.8589 23.2109C12.6646 23.5459 12.3857 23.824 12.0501 24.0173C11.7145 24.2105 11.334 24.3123 10.9468 24.3123C10.5595 24.3123 10.179 24.2105 9.84347 24.0173C9.50789 23.824 9.22898 23.5459 9.03467 23.2109" stroke="#858585" stroke-width="2" stroke-linecap="round" stroke-linejoin="round"/>
<path fill-rule="evenodd" clip-rule="evenodd" d="M17.0264 9.94737C19.7733 9.94737 22.0001 7.72057 22.0001 4.97368C22.0001 2.22679 19.7733 0 17.0264 0C14.2795 0 12.0527 2.22679 12.0527 4.97368C12.0527 7.72057 14.2795 9.94737 17.0264 9.94737Z" fill="#74FD82"/>
</svg>
