<svg width="16" height="16" viewBox="0 0 16 16" fill="none" xmlns="http://www.w3.org/2000/svg">
<path d="M15.7605 9.93597C15.3772 11.47 14.5475 12.8559 13.3765 13.9185C12.2054 14.9812 10.7456 15.6728 9.18141 15.906C7.61725 16.1393 6.01905 15.9036 4.58883 15.2289C3.15862 14.5541 1.9606 13.4705 1.14624 12.1151C0.331873 10.7597 -0.0622785 9.19337 0.0136102 7.61404C0.0894989 6.03472 0.63202 4.51334 1.57259 3.24224C2.51316 1.97114 3.80955 1.00738 5.29788 0.472807C6.78621 -0.0617695 8.39964 -0.143166 9.93423 0.238908C10.9539 0.492609 11.9136 0.944773 12.7584 1.56955C13.6032 2.19432 14.3166 2.97945 14.8577 3.88005C15.3988 4.78065 15.7571 5.77905 15.912 6.81817C16.0669 7.85729 16.0154 8.91675 15.7605 9.93597ZM11.5265 6.8605C11.6865 5.80053 10.8771 5.22721 9.7662 4.84056L10.1263 3.40549L9.24967 3.18549L8.89939 4.59034C8.66958 4.53212 8.42954 4.47879 8.18816 4.42368L8.53889 3.00594L7.65874 2.78595L7.29868 4.22946C7.10887 4.18502 6.92218 4.14058 6.73859 4.09613L5.52817 3.79614L5.29479 4.73434C5.29479 4.73434 5.94468 4.88456 5.93134 4.89167C6.05283 4.90641 6.16373 4.96809 6.24032 5.06352C6.31691 5.15895 6.35311 5.28055 6.34119 5.40232L5.35614 9.34888C5.32877 9.43032 5.27061 9.49782 5.1941 9.53694C5.11759 9.57606 5.0288 9.58369 4.94674 9.55821C4.95651 9.57154 4.30663 9.39821 4.30663 9.39821L3.86656 10.4048L5.00675 10.6888L5.62907 10.8502L5.26901 12.3101L6.14916 12.5283L6.50922 11.0817C6.74926 11.1484 6.97907 11.2084 7.20933 11.2639L6.86928 12.6999L7.74942 12.9221L8.11304 11.4622C9.60662 11.7466 10.7357 11.6337 11.2069 10.2795C11.587 9.18844 11.1869 8.55957 10.3952 8.14891C10.6979 8.08748 10.9717 7.92783 11.1743 7.69477C11.3769 7.4617 11.4968 7.16827 11.5154 6.86006H11.5221L11.5265 6.8605ZM9.5195 9.67376C9.25012 10.7671 7.41426 10.1737 6.81905 10.0293L7.29913 8.09602C7.89656 8.24935 9.80443 8.54046 9.52172 9.67598L9.5195 9.67376ZM9.79288 6.84717C9.54617 7.84048 8.01791 7.33605 7.52272 7.21383L7.95879 5.45387C8.45488 5.57387 10.048 5.8032 9.79243 6.84317V6.84717H9.79288Z" fill="black"/>
</svg>
