<svg width="28" height="27" viewBox="0 0 28 27" fill="none" xmlns="http://www.w3.org/2000/svg">
<path d="M18.375 8.375L22.75 4M25.25 1.5L22.75 4L25.25 1.5ZM13.2375 13.5125C13.8829 14.1493 14.396 14.9075 14.7472 15.7435C15.0984 16.5794 15.2807 17.4766 15.2838 18.3833C15.2868 19.29 15.1104 20.1884 14.7649 21.0266C14.4193 21.8649 13.9113 22.6265 13.2702 23.2677C12.629 23.9088 11.8674 24.4168 11.0291 24.7624C10.1908 25.108 9.29248 25.2843 8.38577 25.2813C7.47906 25.2782 6.58191 25.0959 5.74597 24.7447C4.91003 24.3935 4.15181 23.8804 3.51498 23.235C2.26264 21.9384 1.56968 20.2017 1.58534 18.3991C1.60101 16.5965 2.32404 14.8722 3.59872 13.5975C4.8734 12.3228 6.59774 11.5998 8.40034 11.5841C10.2029 11.5685 11.9396 12.2614 13.2362 13.5138L13.2375 13.5125ZM13.2375 13.5125L18.375 8.375L13.2375 13.5125ZM18.375 8.375L22.125 12.125L26.5 7.75L22.75 4L18.375 8.375Z" stroke="#858585" stroke-width="2" stroke-linecap="round" stroke-linejoin="round"/>
</svg>
