<svg width="25" height="25" viewBox="0 0 25 25" fill="none" xmlns="http://www.w3.org/2000/svg">
<path d="M11.0352 17.1875H0.976562C0.437207 17.1875 0 17.6247 0 18.1641V24.0234C0 24.5628 0.437207 25 0.976562 25H11.0352C11.5745 25 12.0117 24.5628 12.0117 24.0234V18.1641C12.0117 17.6247 11.5745 17.1875 11.0352 17.1875ZM10.0586 23.0469H1.95312V19.1406H10.0586V23.0469Z" fill="#FFDC18"/>
<path d="M11.0352 0H0.976562C0.437207 0 0 0.437207 0 0.976562V15.2344C0 15.7737 0.437207 16.2109 0.976562 16.2109H11.0352C11.5745 16.2109 12.0117 15.7737 12.0117 15.2344V0.976562C12.0117 0.437207 11.5745 0 11.0352 0ZM10.0586 14.2578H1.95312V1.95312H10.0586V14.2578Z" fill="#FFDC18"/>
<path d="M24.0234 0H13.9648C13.4255 0 12.9883 0.437207 12.9883 0.976562V6.83594C12.9883 7.37529 13.4255 7.8125 13.9648 7.8125H24.0234C24.5628 7.8125 25 7.37529 25 6.83594V0.976562C25 0.437207 24.5628 0 24.0234 0ZM23.0469 5.85938H14.9414V1.95312H23.0469V5.85938Z" fill="#FFDC18"/>
<path d="M24.0234 8.78906H13.9648C13.4255 8.78906 12.9883 9.22627 12.9883 9.76562V24.0234C12.9883 24.5628 13.4255 25 13.9648 25H24.0234C24.5628 25 25 24.5628 25 24.0234V9.76562C25 9.22627 24.5628 8.78906 24.0234 8.78906ZM23.0469 23.0469H14.9414V10.7422H23.0469V23.0469Z" fill="#FFDC18"/>
</svg>
