<svg width="15" height="15" viewBox="0 0 15 15" fill="none" xmlns="http://www.w3.org/2000/svg">
<path d="M13.1875 1H1.8125C1.36377 1 1 1.35526 1 1.79349V3.0518C1 3.26225 1.0856 3.46408 1.23798 3.61289L5.63702 7.90903C5.7894 8.05784 5.875 8.25967 5.875 8.47011V13.2055C5.875 13.7954 6.51063 14.179 7.05086 13.9152L8.67586 13.1217C8.95112 12.9873 9.125 12.7125 9.125 12.412V8.47011C9.125 8.25967 9.2106 8.05784 9.36298 7.90903L13.762 3.61289C13.9144 3.46408 14 3.26225 14 3.0518V1.79349C14 1.35526 13.6362 1 13.1875 1Z" stroke="#858585" stroke-width="2" stroke-linecap="round" stroke-linejoin="round"/>
</svg>
