<svg width="25" height="25" viewBox="0 0 25 25" fill="none" xmlns="http://www.w3.org/2000/svg">
<g clip-path="url(#clip0_318_993)">
<path d="M24.2188 6.25H0.78125C0.35 6.25 0 5.9 0 5.46875C0 5.0375 0.35 4.6875 0.78125 4.6875H24.2188C24.65 4.6875 25 5.0375 25 5.46875C25 5.9 24.65 6.25 24.2188 6.25Z" fill="black"/>
<path d="M21.4168 14.5833C19.4408 14.5833 17.8335 12.976 17.8335 11V5.46875C17.8335 5.0375 18.1835 4.6875 18.6147 4.6875H24.22C24.6502 4.6875 25.0002 5.0375 25.0002 5.46875V11C25.0002 12.976 23.3929 14.5833 21.4168 14.5833ZM19.395 6.25V11C19.395 12.1146 20.3012 13.0208 21.4158 13.0208C22.5304 13.0208 23.4366 12.1135 23.4366 11V6.25H19.395Z" fill="black"/>
<path d="M15.5573 14.5833C13.4417 14.5833 11.7188 12.8614 11.7188 10.7448V5.46875C11.7188 5.0375 12.0687 4.6875 12.5 4.6875H18.6135C19.0448 4.6875 19.3948 5.0375 19.3948 5.46875V10.7448C19.3948 12.8614 17.6729 14.5833 15.5573 14.5833ZM13.2812 6.25V10.7448C13.2812 12 14.3021 13.0208 15.5573 13.0208C16.8125 13.0208 17.8333 12 17.8333 10.7448V6.25H13.2812Z" fill="black"/>
<path d="M9.44254 14.5833C7.32692 14.5833 5.604 12.8614 5.604 10.7448V5.46875C5.604 5.0375 5.954 4.6875 6.38525 4.6875H12.4998C12.9311 4.6875 13.2811 5.0375 13.2811 5.46875V10.7448C13.2811 12.8614 11.5592 14.5833 9.44254 14.5833ZM7.16754 6.25V10.7448C7.16754 12 8.18837 13.0208 9.44358 13.0208C10.6988 13.0208 11.7196 12 11.7196 10.7448V6.25H7.16754Z" fill="black"/>
<path d="M3.58333 14.5833C1.60729 14.5833 0 12.976 0 11V5.46875C0 5.0375 0.35 4.6875 0.78125 4.6875H6.38646C6.81771 4.6875 7.16771 5.0375 7.16771 5.46875V11C7.16771 12.976 5.56042 14.5833 3.58333 14.5833ZM1.5625 6.25V11C1.5625 12.1146 2.46875 13.0208 3.58333 13.0208C4.69792 13.0208 5.60417 12.1135 5.60417 11V6.25H1.5625Z" fill="black"/>
<path d="M22.1354 23.8583H2.86458C1.3396 23.8583 0.1 22.6187 0.1 21.0937V16.4062C0.1 16.0302 0.405228 15.725 0.78125 15.725C1.15727 15.725 1.4625 16.0302 1.4625 16.4062V21.0937C1.4625 21.8667 2.09165 22.4958 2.86458 22.4958H22.1354C22.9084 22.4958 23.5375 21.8667 23.5375 21.0937V16.4062C23.5375 16.0302 23.8427 15.725 24.2188 15.725C24.5949 15.725 24.9 16.0293 24.9 16.4062V21.0937C24.9 22.6187 23.6604 23.8583 22.1354 23.8583Z" fill="black" stroke="#F8F8F8" stroke-width="0.2"/>
<path d="M0.78125 7.45204C0.405142 7.45204 0.1 7.14777 0.1 6.77079V3.90621C0.1 2.38123 1.3396 1.14163 2.86458 1.14163H22.1354C23.6604 1.14163 24.9 2.38123 24.9 3.90621V5.64267C24.9 6.01869 24.5948 6.32392 24.2188 6.32392C23.8427 6.32392 23.5375 6.01869 23.5375 5.64267V3.90621C23.5375 3.13327 22.9084 2.50413 22.1354 2.50413H2.86458C2.09165 2.50413 1.4625 3.13327 1.4625 3.90621V6.77079C1.4625 7.14777 1.15736 7.45204 0.78125 7.45204Z" fill="black" stroke="#F8F8F8" stroke-width="0.2"/>
</g>
<defs>
<clipPath id="clip0_318_993">
<rect width="25" height="25" fill="white"/>
</clipPath>
</defs>
</svg>
