<svg width="31" height="31" viewBox="0 0 31 31" fill="none" xmlns="http://www.w3.org/2000/svg">
<path d="M15.6374 7.98129C16.1597 8.16098 16.4373 8.73 16.2577 9.25223C16.078 9.77447 15.509 10.0522 14.9867 9.87248C14.4645 9.69279 14.1868 9.12377 14.3665 8.60154C14.5462 8.0793 15.1152 7.80161 15.6374 7.98129Z" stroke="#14181F" stroke-width="2" stroke-linecap="round" stroke-linejoin="round"/>
<path d="M15.5764 14.3055C16.0986 14.4852 16.3763 15.0542 16.1966 15.5765C16.0169 16.0987 15.4479 16.3764 14.9257 16.1967C14.4034 16.017 14.1258 15.448 14.3054 14.9258C14.4851 14.4035 15.0541 14.1258 15.5764 14.3055Z" stroke="#14181F" stroke-width="2" stroke-linecap="round" stroke-linejoin="round"/>
<path d="M15.5153 20.6297C16.0376 20.8094 16.3153 21.3784 16.1356 21.9007C15.9559 22.4229 15.3869 22.7006 14.8646 22.5209C14.3424 22.3412 14.0647 21.7722 14.2444 21.25C14.4241 20.7277 14.9931 20.45 15.5153 20.6297Z" stroke="#14181F" stroke-width="2" stroke-linecap="round" stroke-linejoin="round"/>
</svg>
