<svg width="20" height="20" viewBox="0 0 20 20" fill="none" xmlns="http://www.w3.org/2000/svg">
<path d="M7.5 14.167V13.167C6.94772 13.167 6.5 13.6147 6.5 14.167H7.5ZM12.5 14.167H13.5C13.5 13.6147 13.0523 13.167 12.5 13.167V14.167ZM7.5 15.167H12.5V13.167H7.5V15.167ZM11.5 14.167V15.0003H13.5V14.167H11.5ZM8.5 15.0003V14.167H6.5V15.0003H8.5ZM10 16.5003C9.17157 16.5003 8.5 15.8288 8.5 15.0003H6.5C6.5 16.9333 8.067 18.5003 10 18.5003V16.5003ZM11.5 15.0003C11.5 15.8288 10.8284 16.5003 10 16.5003V18.5003C11.933 18.5003 13.5 16.9333 13.5 15.0003H11.5Z" fill="#14181F"/>
<path d="M17.5002 5.00033C17.5002 6.84127 16.0078 8.33366 14.1668 8.33366C12.3259 8.33366 10.8335 6.84127 10.8335 5.00033C10.8335 3.15938 12.3259 1.66699 14.1668 1.66699C16.0078 1.66699 17.5002 3.15938 17.5002 5.00033Z" stroke="#14181F" stroke-width="2" stroke-linecap="round" stroke-linejoin="round"/>
<path d="M11.7059 2.75333C11.1663 2.58861 10.5936 2.5 10.0002 2.5C6.7785 2.5 4.16683 5.11168 4.16683 8.33332V11.4353C4.16683 11.5835 4.108 11.7255 4.00326 11.8302L3.57757 12.2559C3.4213 12.4122 3.3335 12.6241 3.3335 12.8451V13.3333C3.3335 13.7936 3.7066 14.1666 4.16683 14.1666H15.8335C16.2937 14.1666 16.6668 13.7936 16.6668 13.3333V12.8451C16.6668 12.6241 16.579 12.4122 16.4227 12.2559L15.9971 11.8302C15.8923 11.7255 15.8335 11.5835 15.8335 11.4353V8.33332C15.8335 8.18628 15.8281 8.04052 15.8171 7.89681" stroke="#14181F" stroke-width="2" stroke-linecap="round" stroke-linejoin="round"/>
</svg>
