<svg width="20" height="20" viewBox="0 0 20 20" fill="none" xmlns="http://www.w3.org/2000/svg">
<path d="M2.5 15.8333C2.5 13.9924 4.73858 12.5 7.5 12.5C10.2614 12.5 12.5 13.9924 12.5 15.8333" stroke="#14181F" stroke-width="2" stroke-linecap="round" stroke-linejoin="round"/>
<path d="M18.2071 9.04011C18.5976 8.64959 18.5976 8.01643 18.2071 7.6259C17.8166 7.23538 17.1834 7.23538 16.7929 7.6259L18.2071 9.04011ZM14.1667 11.6663L13.4596 12.3734C13.6471 12.561 13.9015 12.6663 14.1667 12.6663C14.4319 12.6663 14.6862 12.561 14.8738 12.3734L14.1667 11.6663ZM13.2071 9.29257C12.8166 8.90204 12.1834 8.90204 11.7929 9.29257C11.4024 9.68309 11.4024 10.3163 11.7929 10.7068L13.2071 9.29257ZM16.7929 7.6259L13.4596 10.9592L14.8738 12.3734L18.2071 9.04011L16.7929 7.6259ZM14.8738 10.9592L13.2071 9.29257L11.7929 10.7068L13.4596 12.3734L14.8738 10.9592Z" fill="#14181F"/>
<path d="M7.49984 9.99967C9.34079 9.99967 10.8332 8.50729 10.8332 6.66634C10.8332 4.82539 9.34079 3.33301 7.49984 3.33301C5.65889 3.33301 4.1665 4.82539 4.1665 6.66634C4.1665 8.50729 5.65889 9.99967 7.49984 9.99967Z" stroke="#14181F" stroke-width="2" stroke-linecap="round" stroke-linejoin="round"/>
</svg>
