<svg width="22" height="22" viewBox="0 0 22 22" fill="none" xmlns="http://www.w3.org/2000/svg">
<path d="M21.3125 6.1875C20.9328 6.1875 20.625 5.87967 20.625 5.5V1.97656C20.625 1.64484 20.3552 1.375 20.0234 1.375H16.5C16.1203 1.375 15.8125 1.06717 15.8125 0.6875C15.8125 0.307828 16.1203 0 16.5 0H20.0234C21.1133 0 22 0.886703 22 1.97656V5.5C22 5.87967 21.6922 6.1875 21.3125 6.1875Z" fill="white"/>
<path d="M0.6875 6.1875C0.307785 6.1875 0 5.87967 0 5.5V1.97656C0 0.886703 0.886703 0 1.97656 0H5.5C5.87971 0 6.1875 0.307828 6.1875 0.6875C6.1875 1.06717 5.87971 1.375 5.5 1.375H1.97656C1.64484 1.375 1.375 1.64484 1.375 1.97656V5.5C1.375 5.87967 1.06721 6.1875 0.6875 6.1875Z" fill="white"/>
<path d="M5.5 22H1.97656C0.886703 22 0 21.1133 0 20.0234V16.5C0 16.1203 0.307785 15.8125 0.6875 15.8125C1.06721 15.8125 1.375 16.1203 1.375 16.5V20.0234C1.375 20.3552 1.64484 20.625 1.97656 20.625H5.5C5.87971 20.625 6.1875 20.9328 6.1875 21.3125C6.1875 21.6922 5.87971 22 5.5 22Z" fill="white"/>
<path d="M20.0234 22H16.5C16.1203 22 15.8125 21.6922 15.8125 21.3125C15.8125 20.9328 16.1203 20.625 16.5 20.625H20.0234C20.3552 20.625 20.625 20.3552 20.625 20.0234V16.5C20.625 16.1203 20.9328 15.8125 21.3125 15.8125C21.6922 15.8125 22 16.1203 22 16.5V20.0234C22 21.1133 21.1133 22 20.0234 22Z" fill="white"/>
<path d="M8.33594 10.3125H4.72656C3.6367 10.3125 2.75 9.4258 2.75 8.33594V4.72656C2.75 3.6367 3.6367 2.75 4.72656 2.75H8.33594C9.4258 2.75 10.3125 3.6367 10.3125 4.72656V8.33594C10.3125 9.4258 9.4258 10.3125 8.33594 10.3125ZM4.72656 4.125C4.39484 4.125 4.125 4.39484 4.125 4.72656V8.33594C4.125 8.66766 4.39484 8.9375 4.72656 8.9375H8.33594C8.66766 8.9375 8.9375 8.66766 8.9375 8.33594V4.72656C8.9375 4.39484 8.66766 4.125 8.33594 4.125H4.72656Z" fill="white"/>
<path d="M8.33594 19.25H4.72656C3.6367 19.25 2.75 18.3633 2.75 17.2734V13.6641C2.75 12.5742 3.6367 11.6875 4.72656 11.6875H8.33594C9.4258 11.6875 10.3125 12.5742 10.3125 13.6641V17.2734C10.3125 18.3633 9.4258 19.25 8.33594 19.25ZM4.72656 13.0625C4.39484 13.0625 4.125 13.3323 4.125 13.6641V17.2734C4.125 17.6052 4.39484 17.875 4.72656 17.875H8.33594C8.66766 17.875 8.9375 17.6052 8.9375 17.2734V13.6641C8.9375 13.3323 8.66766 13.0625 8.33594 13.0625H4.72656Z" fill="white"/>
<path d="M17.2734 10.3125H13.6641C12.5742 10.3125 11.6875 9.4258 11.6875 8.33594V4.72656C11.6875 3.6367 12.5742 2.75 13.6641 2.75H17.2734C18.3633 2.75 19.25 3.6367 19.25 4.72656V8.33594C19.25 9.4258 18.3633 10.3125 17.2734 10.3125ZM13.6641 4.125C13.3323 4.125 13.0625 4.39484 13.0625 4.72656V8.33594C13.0625 8.66766 13.3323 8.9375 13.6641 8.9375H17.2734C17.6052 8.9375 17.875 8.66766 17.875 8.33594V4.72656C17.875 4.39484 17.6052 4.125 17.2734 4.125H13.6641Z" fill="white"/>
<path d="M18.1328 15.125H16.5V12.8047C16.5 12.1887 15.9989 11.6875 15.3828 11.6875H12.8047C12.1886 11.6875 11.6875 12.1887 11.6875 12.8047V15.3828C11.6875 15.9988 12.1886 16.5 12.8047 16.5H15.125V18.1328C15.125 18.7488 15.6261 19.25 16.2422 19.25H18.1328C18.7489 19.25 19.25 18.7488 19.25 18.1328V16.2422C19.25 15.6262 18.7489 15.125 18.1328 15.125ZM13.0625 13.0625H15.125V15.125H13.0625V13.0625ZM17.875 17.875H16.5V16.5H17.875V17.875Z" fill="white"/>
<path d="M6.875 7.5625H6.1875C5.80779 7.5625 5.5 7.25467 5.5 6.875V6.1875C5.5 5.80783 5.80779 5.5 6.1875 5.5H6.875C7.25471 5.5 7.5625 5.80783 7.5625 6.1875V6.875C7.5625 7.25467 7.25471 7.5625 6.875 7.5625Z" fill="white"/>
<path d="M15.8125 7.5625H15.125C14.7453 7.5625 14.4375 7.25467 14.4375 6.875V6.1875C14.4375 5.80783 14.7453 5.5 15.125 5.5H15.8125C16.1922 5.5 16.5 5.80783 16.5 6.1875V6.875C16.5 7.25467 16.1922 7.5625 15.8125 7.5625Z" fill="white"/>
<path d="M6.875 16.5H6.1875C5.80779 16.5 5.5 16.1922 5.5 15.8125V15.125C5.5 14.7453 5.80779 14.4375 6.1875 14.4375H6.875C7.25471 14.4375 7.5625 14.7453 7.5625 15.125V15.8125C7.5625 16.1922 7.25471 16.5 6.875 16.5Z" fill="white"/>
</svg>
