<svg width="12" height="12" viewBox="0 0 12 12" fill="none" xmlns="http://www.w3.org/2000/svg">
<path d="M11.625 3.375C11.4179 3.375 11.25 3.20709 11.25 3V1.07812C11.25 0.897188 11.1028 0.75 10.9219 0.75H9C8.79288 0.75 8.625 0.582094 8.625 0.375C8.625 0.167906 8.79288 0 9 0H10.9219C11.5163 0 12 0.483656 12 1.07812V3C12 3.20709 11.8321 3.375 11.625 3.375Z" fill="#515151"/>
<path d="M0.375 3.375C0.167883 3.375 0 3.20709 0 3V1.07812C0 0.483656 0.483656 0 1.07812 0H3C3.20712 0 3.375 0.167906 3.375 0.375C3.375 0.582094 3.20712 0.75 3 0.75H1.07812C0.897188 0.75 0.75 0.897188 0.75 1.07812V3C0.75 3.20709 0.582117 3.375 0.375 3.375Z" fill="#515151"/>
<path d="M3 12H1.07812C0.483656 12 0 11.5163 0 10.9219V9C0 8.79291 0.167883 8.625 0.375 8.625C0.582117 8.625 0.75 8.79291 0.75 9V10.9219C0.75 11.1028 0.897188 11.25 1.07812 11.25H3C3.20712 11.25 3.375 11.4179 3.375 11.625C3.375 11.8321 3.20712 12 3 12Z" fill="#515151"/>
<path d="M10.9219 12H9C8.79288 12 8.625 11.8321 8.625 11.625C8.625 11.4179 8.79288 11.25 9 11.25H10.9219C11.1028 11.25 11.25 11.1028 11.25 10.9219V9C11.25 8.79291 11.4179 8.625 11.625 8.625C11.8321 8.625 12 8.79291 12 9V10.9219C12 11.5163 11.5163 12 10.9219 12Z" fill="#515151"/>
<path d="M4.54688 5.625H2.57812C1.98366 5.625 1.5 5.14134 1.5 4.54688V2.57812C1.5 1.98366 1.98366 1.5 2.57812 1.5H4.54688C5.14134 1.5 5.625 1.98366 5.625 2.57812V4.54688C5.625 5.14134 5.14134 5.625 4.54688 5.625ZM2.57812 2.25C2.39719 2.25 2.25 2.39719 2.25 2.57812V4.54688C2.25 4.72781 2.39719 4.875 2.57812 4.875H4.54688C4.72781 4.875 4.875 4.72781 4.875 4.54688V2.57812C4.875 2.39719 4.72781 2.25 4.54688 2.25H2.57812Z" fill="#515151"/>
<path d="M4.54688 10.5H2.57812C1.98366 10.5 1.5 10.0163 1.5 9.42188V7.45312C1.5 6.85866 1.98366 6.375 2.57812 6.375H4.54688C5.14134 6.375 5.625 6.85866 5.625 7.45312V9.42188C5.625 10.0163 5.14134 10.5 4.54688 10.5ZM2.57812 7.125C2.39719 7.125 2.25 7.27219 2.25 7.45312V9.42188C2.25 9.60281 2.39719 9.75 2.57812 9.75H4.54688C4.72781 9.75 4.875 9.60281 4.875 9.42188V7.45312C4.875 7.27219 4.72781 7.125 4.54688 7.125H2.57812Z" fill="#515151"/>
<path d="M9.42188 5.625H7.45312C6.85866 5.625 6.375 5.14134 6.375 4.54688V2.57812C6.375 1.98366 6.85866 1.5 7.45312 1.5H9.42188C10.0163 1.5 10.5 1.98366 10.5 2.57812V4.54688C10.5 5.14134 10.0163 5.625 9.42188 5.625ZM7.45312 2.25C7.27219 2.25 7.125 2.39719 7.125 2.57812V4.54688C7.125 4.72781 7.27219 4.875 7.45312 4.875H9.42188C9.60281 4.875 9.75 4.72781 9.75 4.54688V2.57812C9.75 2.39719 9.60281 2.25 9.42188 2.25H7.45312Z" fill="#515151"/>
<path d="M9.89062 8.25H9V6.98438C9 6.64837 8.72665 6.375 8.39062 6.375H6.98438C6.64835 6.375 6.375 6.64837 6.375 6.98438V8.39062C6.375 8.72662 6.64835 9 6.98438 9H8.25V9.89062C8.25 10.2266 8.52335 10.5 8.85938 10.5H9.89062C10.2266 10.5 10.5 10.2266 10.5 9.89062V8.85938C10.5 8.52338 10.2266 8.25 9.89062 8.25ZM7.125 7.125H8.25V8.25H7.125V7.125ZM9.75 9.75H9V9H9.75V9.75Z" fill="#515151"/>
<path d="M3.75 4.125H3.375C3.16788 4.125 3 3.95709 3 3.75V3.375C3 3.16791 3.16788 3 3.375 3H3.75C3.95712 3 4.125 3.16791 4.125 3.375V3.75C4.125 3.95709 3.95712 4.125 3.75 4.125Z" fill="#515151"/>
<path d="M8.625 4.125H8.25C8.04288 4.125 7.875 3.95709 7.875 3.75V3.375C7.875 3.16791 8.04288 3 8.25 3H8.625C8.83212 3 9 3.16791 9 3.375V3.75C9 3.95709 8.83212 4.125 8.625 4.125Z" fill="#515151"/>
<path d="M3.75 9H3.375C3.16788 9 3 8.83209 3 8.625V8.25C3 8.04291 3.16788 7.875 3.375 7.875H3.75C3.95712 7.875 4.125 8.04291 4.125 8.25V8.625C4.125 8.83209 3.95712 9 3.75 9Z" fill="#515151"/>
</svg>
