<svg width="45" height="42" viewBox="0 0 45 42" fill="none" xmlns="http://www.w3.org/2000/svg">
<g filter="url(#filter0_d_440_998)">
<rect x="4" y="2" width="37" height="34" rx="3" fill="#257BCE"/>
</g>
<path d="M33.3125 14.1875C32.9328 14.1875 32.625 13.8797 32.625 13.5V9.97656C32.625 9.64484 32.3552 9.375 32.0234 9.375H28.5C28.1203 9.375 27.8125 9.06717 27.8125 8.6875C27.8125 8.30783 28.1203 8 28.5 8H32.0234C33.1133 8 34 8.8867 34 9.97656V13.5C34 13.8797 33.6922 14.1875 33.3125 14.1875Z" fill="white"/>
<path d="M12.6875 14.1875C12.3078 14.1875 12 13.8797 12 13.5V9.97656C12 8.8867 12.8867 8 13.9766 8H17.5C17.8797 8 18.1875 8.30783 18.1875 8.6875C18.1875 9.06717 17.8797 9.375 17.5 9.375H13.9766C13.6448 9.375 13.375 9.64484 13.375 9.97656V13.5C13.375 13.8797 13.0672 14.1875 12.6875 14.1875Z" fill="white"/>
<path d="M17.5 30H13.9766C12.8867 30 12 29.1133 12 28.0234V24.5C12 24.1203 12.3078 23.8125 12.6875 23.8125C13.0672 23.8125 13.375 24.1203 13.375 24.5V28.0234C13.375 28.3552 13.6448 28.625 13.9766 28.625H17.5C17.8797 28.625 18.1875 28.9328 18.1875 29.3125C18.1875 29.6922 17.8797 30 17.5 30Z" fill="white"/>
<path d="M32.0234 30H28.5C28.1203 30 27.8125 29.6922 27.8125 29.3125C27.8125 28.9328 28.1203 28.625 28.5 28.625H32.0234C32.3552 28.625 32.625 28.3552 32.625 28.0234V24.5C32.625 24.1203 32.9328 23.8125 33.3125 23.8125C33.6922 23.8125 34 24.1203 34 24.5V28.0234C34 29.1133 33.1133 30 32.0234 30Z" fill="white"/>
<path d="M20.3359 18.3125H16.7266C15.6367 18.3125 14.75 17.4258 14.75 16.3359V12.7266C14.75 11.6367 15.6367 10.75 16.7266 10.75H20.3359C21.4258 10.75 22.3125 11.6367 22.3125 12.7266V16.3359C22.3125 17.4258 21.4258 18.3125 20.3359 18.3125ZM16.7266 12.125C16.3948 12.125 16.125 12.3948 16.125 12.7266V16.3359C16.125 16.6677 16.3948 16.9375 16.7266 16.9375H20.3359C20.6677 16.9375 20.9375 16.6677 20.9375 16.3359V12.7266C20.9375 12.3948 20.6677 12.125 20.3359 12.125H16.7266Z" fill="white"/>
<path d="M20.3359 27.25H16.7266C15.6367 27.25 14.75 26.3633 14.75 25.2734V21.6641C14.75 20.5742 15.6367 19.6875 16.7266 19.6875H20.3359C21.4258 19.6875 22.3125 20.5742 22.3125 21.6641V25.2734C22.3125 26.3633 21.4258 27.25 20.3359 27.25ZM16.7266 21.0625C16.3948 21.0625 16.125 21.3323 16.125 21.6641V25.2734C16.125 25.6052 16.3948 25.875 16.7266 25.875H20.3359C20.6677 25.875 20.9375 25.6052 20.9375 25.2734V21.6641C20.9375 21.3323 20.6677 21.0625 20.3359 21.0625H16.7266Z" fill="white"/>
<path d="M29.2734 18.3125H25.6641C24.5742 18.3125 23.6875 17.4258 23.6875 16.3359V12.7266C23.6875 11.6367 24.5742 10.75 25.6641 10.75H29.2734C30.3633 10.75 31.25 11.6367 31.25 12.7266V16.3359C31.25 17.4258 30.3633 18.3125 29.2734 18.3125ZM25.6641 12.125C25.3323 12.125 25.0625 12.3948 25.0625 12.7266V16.3359C25.0625 16.6677 25.3323 16.9375 25.6641 16.9375H29.2734C29.6052 16.9375 29.875 16.6677 29.875 16.3359V12.7266C29.875 12.3948 29.6052 12.125 29.2734 12.125H25.6641Z" fill="white"/>
<path d="M30.1328 23.125H28.5V20.8047C28.5 20.1887 27.9989 19.6875 27.3828 19.6875H24.8047C24.1886 19.6875 23.6875 20.1887 23.6875 20.8047V23.3828C23.6875 23.9988 24.1886 24.5 24.8047 24.5H27.125V26.1328C27.125 26.7488 27.6261 27.25 28.2422 27.25H30.1328C30.7489 27.25 31.25 26.7488 31.25 26.1328V24.2422C31.25 23.6262 30.7489 23.125 30.1328 23.125ZM25.0625 21.0625H27.125V23.125H25.0625V21.0625ZM29.875 25.875H28.5V24.5H29.875V25.875Z" fill="white"/>
<path d="M18.875 15.5625H18.1875C17.8078 15.5625 17.5 15.2547 17.5 14.875V14.1875C17.5 13.8078 17.8078 13.5 18.1875 13.5H18.875C19.2547 13.5 19.5625 13.8078 19.5625 14.1875V14.875C19.5625 15.2547 19.2547 15.5625 18.875 15.5625Z" fill="white"/>
<path d="M27.8125 15.5625H27.125C26.7453 15.5625 26.4375 15.2547 26.4375 14.875V14.1875C26.4375 13.8078 26.7453 13.5 27.125 13.5H27.8125C28.1922 13.5 28.5 13.8078 28.5 14.1875V14.875C28.5 15.2547 28.1922 15.5625 27.8125 15.5625Z" fill="white"/>
<path d="M18.875 24.5H18.1875C17.8078 24.5 17.5 24.1922 17.5 23.8125V23.125C17.5 22.7453 17.8078 22.4375 18.1875 22.4375H18.875C19.2547 22.4375 19.5625 22.7453 19.5625 23.125V23.8125C19.5625 24.1922 19.2547 24.5 18.875 24.5Z" fill="white"/>
<defs>
<filter id="filter0_d_440_998" x="0" y="0" width="45" height="42" filterUnits="userSpaceOnUse" color-interpolation-filters="sRGB">
<feFlood flood-opacity="0" result="BackgroundImageFix"/>
<feColorMatrix in="SourceAlpha" type="matrix" values="0 0 0 0 0 0 0 0 0 0 0 0 0 0 0 0 0 0 127 0" result="hardAlpha"/>
<feOffset dy="2"/>
<feGaussianBlur stdDeviation="2"/>
<feColorMatrix type="matrix" values="0 0 0 0 0 0 0 0 0 0 0 0 0 0 0 0 0 0 0.11 0"/>
<feBlend mode="normal" in2="BackgroundImageFix" result="effect1_dropShadow_440_998"/>
<feBlend mode="normal" in="SourceGraphic" in2="effect1_dropShadow_440_998" result="shape"/>
</filter>
</defs>
</svg>
