<svg width="20" height="20" viewBox="0 0 20 20" fill="none" xmlns="http://www.w3.org/2000/svg">
<g clip-path="url(#clip0_107_8418)">
<path d="M0.833496 3.33301V8.33301H5.8335" stroke="#858585" stroke-width="2" stroke-linecap="round" stroke-linejoin="round"/>
<path d="M19.1665 16.667V11.667H14.1665" stroke="#858585" stroke-width="2" stroke-linecap="round" stroke-linejoin="round"/>
<path d="M19.1668 11.6666L15.3002 15.3C14.4045 16.1961 13.2965 16.8506 12.0795 17.2027C10.8625 17.5547 9.57609 17.5927 8.3404 17.3131C7.10472 17.0335 5.96 16.4455 5.01305 15.6038C4.06611 14.7621 3.3478 13.6943 2.92516 12.5M17.0752 7.49998C16.6525 6.30564 15.9342 5.23782 14.9873 4.39616C14.0403 3.55451 12.8956 2.96645 11.6599 2.68686C10.4242 2.40727 9.13787 2.44527 7.92084 2.79729C6.70381 3.14932 5.59579 3.80391 4.70016 4.69998L0.833496 8.33331L17.0752 7.49998Z" stroke="#2F2E2E" stroke-width="2" stroke-linecap="round" stroke-linejoin="round"/>
</g>
<defs>
<clipPath id="clip0_107_8418">
<rect width="20" height="20" fill="white"/>
</clipPath>
</defs>
</svg>
