<svg width="26" height="34" viewBox="0 0 26 34" fill="none" xmlns="http://www.w3.org/2000/svg">
<path d="M19.9224 25.5392L5.75376 25.5371C5.36296 25.5371 5.04541 25.8539 5.04541 26.2455C5.04541 26.6363 5.36223 26.9538 5.75376 26.9538L19.9224 26.9559C20.3132 26.9559 20.6308 26.6391 20.6308 26.2475C20.6307 25.8567 20.314 25.5392 19.9224 25.5392Z" fill="#FFDC18"/>
<path d="M17.0867 28.373H8.58677C8.19524 28.373 7.87842 28.6899 7.87842 29.0814C7.87842 29.4729 8.19524 29.7898 8.58677 29.7898H17.0867C17.4783 29.7898 17.7951 29.4729 17.7951 29.0814C17.795 28.6898 17.4783 28.373 17.0867 28.373Z" fill="#FFDC18"/>
<path d="M12.9996 8.5C8.70329 8.5 5.20801 11.9953 5.20801 16.2916C5.20801 20.5879 8.70329 24.0832 12.9996 24.0832C17.296 24.0832 20.7912 20.5879 20.7912 16.2916C20.7912 11.9953 17.296 8.5 12.9996 8.5ZM6.69623 16.9999H9.47247C9.55089 18.9294 9.9494 20.8483 10.6411 22.2023C8.50493 21.3468 6.96265 19.3682 6.69623 16.9999ZM9.47253 15.5833H6.6963C6.96272 13.2151 8.505 11.2365 10.6412 10.3809C9.94946 11.735 9.55096 13.6538 9.47253 15.5833ZM12.9996 22.6666C12.1881 22.6666 11.0467 20.4721 10.903 17H15.0963C14.9526 20.4721 13.8112 22.6666 12.9996 22.6666ZM10.903 15.5833C11.0467 12.1112 12.1881 9.9167 12.9996 9.9167C13.8112 9.9167 14.9526 12.1112 15.0963 15.5833H10.903ZM15.3581 22.2024C16.0498 20.8483 16.4483 18.9295 16.5268 17H19.303C19.0366 19.3682 17.4943 21.3468 15.3581 22.2024ZM16.5268 15.5833C16.4483 13.6538 16.0498 11.735 15.3581 10.3809C17.4943 11.2365 19.0367 13.2151 19.303 15.5833H16.5268Z" fill="#FFDC18"/>
<path d="M22.9166 4.25013H21.4999V2.78641C21.4999 1.23875 20.1903 -0.0154613 18.6666 0.000144064C18.4489 0.00240187 18.2584 0.0325502 18.0337 0.0893937L2.93161 4.26547C1.44066 4.34622 0.25 5.57287 0.25 7.08347V31.1667C0.25 32.7293 1.52068 34.0001 3.08334 34.0001H22.9166C24.4792 34.0001 25.75 32.7294 25.75 31.1667V7.08347C25.7499 5.52087 24.4792 4.25013 22.9166 4.25013ZM18.3975 1.45829C19.2241 1.24731 20.0832 1.91689 20.0832 2.78641V4.25013H8.30226L18.3975 1.45829ZM24.3333 31.1667C24.3333 31.9477 23.6975 32.5834 22.9166 32.5834H3.08334C2.30241 32.5834 1.66671 31.9477 1.66671 31.1667V7.08347C1.66671 6.30254 2.30241 5.66683 3.08334 5.66683H22.9166C23.6975 5.66683 24.3333 6.30254 24.3333 7.08347V31.1667Z" fill="#FFDC18"/>
</svg>
