<svg width="20" height="20" viewBox="0 0 20 20" fill="none" xmlns="http://www.w3.org/2000/svg">
<path d="M9.52679 15.9312L9.88185 16.8661L9.88185 16.8661L9.52679 15.9312ZM9.13987 15.9312L8.78482 16.8661L8.78482 16.8661L9.13987 15.9312ZM4.66667 5H14V3H4.66667V5ZM13.6667 4.66667V8.77657H15.6667V4.66667H13.6667ZM5 8.77657V4.66667H3V8.77657H5ZM13.6667 8.77657C13.6667 13.0098 10.0808 14.6511 9.17174 14.9964L9.88185 16.8661C10.887 16.4843 15.6667 14.3853 15.6667 8.77657H13.6667ZM3 8.77657C3 14.3853 7.77969 16.4843 8.78482 16.8661L9.49493 14.9964C8.58585 14.6511 5 13.0098 5 8.77657H3ZM9.17174 14.9964C9.27366 14.9577 9.39301 14.9577 9.49493 14.9964L8.78482 16.8661C9.14037 17.0011 9.5263 17.0011 9.88185 16.8661L9.17174 14.9964ZM14 5C13.8159 5 13.6667 4.85076 13.6667 4.66667H15.6667C15.6667 3.74619 14.9205 3 14 3V5ZM4.66667 3C3.74619 3 3 3.74619 3 4.66667H5C5 4.85076 4.85076 5 4.66667 5V3Z" fill="#14181F"/>
<path d="M12.0406 8.70711C12.4311 8.31658 12.4311 7.68342 12.0406 7.29289C11.6501 6.90237 11.0169 6.90237 10.6264 7.29289L12.0406 8.70711ZM8.66683 10.6667L7.95972 11.3738C8.35025 11.7643 8.98341 11.7643 9.37394 11.3738L8.66683 10.6667ZM8.0406 8.62623C7.65008 8.2357 7.01691 8.2357 6.62639 8.62623C6.23586 9.01675 6.23586 9.64992 6.62639 10.0404L8.0406 8.62623ZM10.6264 7.29289L7.95972 9.95956L9.37394 11.3738L12.0406 8.70711L10.6264 7.29289ZM9.37394 9.95956L8.0406 8.62623L6.62639 10.0404L7.95972 11.3738L9.37394 9.95956Z" fill="#14181F"/>
</svg>
