<svg width="26" height="25" viewBox="0 0 26 25" fill="none" xmlns="http://www.w3.org/2000/svg">
<g clip-path="url(#clip0_318_986)">
<path d="M23.6391 8.25662V8.32642L23.7046 8.35049C24.6385 8.69342 25.3062 9.59174 25.3062 10.6425V14.3579C25.3062 15.4086 24.6386 16.3069 23.7046 16.6499L23.6391 16.6739V16.7437V20.7242C23.6391 22.2606 22.3889 23.5107 20.8525 23.5107H3.29277C1.75635 23.5107 0.50625 22.2606 0.50625 20.7242V4.27581C0.50625 2.73933 1.75635 1.48924 3.29277 1.48928H20.8525C22.389 1.48928 23.6391 2.73943 23.6391 4.27581V8.25662ZM22.2482 8.20193H22.3482V8.10193V4.27581C22.3482 3.45104 21.6773 2.7802 20.8525 2.7802H3.29277C2.46801 2.7802 1.79717 3.45105 1.79717 4.27581V20.7241C1.79717 21.5489 2.46801 22.2198 3.29277 22.2198H20.8525C21.6773 22.2198 22.3482 21.5489 22.3482 20.7242V16.8985V16.7985H22.2482H18.8949C16.5249 16.7985 14.5966 14.8702 14.5966 12.5002C14.5966 10.1303 16.5249 8.20193 18.8949 8.20193H22.2482ZM22.8657 15.5076C23.4997 15.5076 24.0154 14.9919 24.0154 14.3578V10.6425C24.0154 10.0084 23.4997 9.49275 22.8657 9.49275H18.895C17.2367 9.49275 15.8876 10.8418 15.8876 12.5002C15.8876 14.1585 17.2367 15.5076 18.895 15.5076H22.8657Z" fill="black" stroke="white" stroke-width="0.2"/>
<path d="M19.2426 10.2391C17.9958 10.2391 16.9814 11.2535 16.9814 12.5003C16.9814 13.747 17.9958 14.7614 19.2426 14.7614C20.4894 14.7614 21.5037 13.747 21.5037 12.5003C21.5037 11.2535 20.4894 10.2391 19.2426 10.2391ZM19.2426 13.2705C18.8179 13.2705 18.4724 12.9249 18.4724 12.5003C18.4724 12.0756 18.8179 11.73 19.2426 11.73C19.6673 11.73 20.0128 12.0756 20.0128 12.5003C20.0128 12.9249 19.6673 13.2705 19.2426 13.2705Z" fill="black"/>
</g>
<defs>
<clipPath id="clip0_318_986">
<rect width="25" height="25" fill="white" transform="translate(0.40625)"/>
</clipPath>
</defs>
</svg>
